<svg xmlns="http://www.w3.org/2000/svg" viewBox="0 0 691.2 218.5"><path fill="#fff" d="M506.2 218.5a11 11 0 0 1-11-11V11a11 11 0 1 1 22 0v196.5a11 11 0 0 1-11 11zm129.5-60.7a11 11 0 0 1-11-11V94a33.3 33.3 0 0 1 66.5 0 11 11 0 1 1-22 0 11.3 11.3 0 0 0-22.5 0v52.8a11 11 0 0 1-11 11zM573 195.7a33.3 33.3 0 0 1-33.3-33.2V59.7a33.3 33.3 0 1 1 66.5 0 11 11 0 0 1-22 0 11.3 11.3 0 1 0-22.5 0v102.7a11.3 11.3 0 1 0 22.5 0 11 11 0 0 1 22 0 33.3 33.3 0 0 1-33.3 33.3zm-137.3 8.5h-1.2a33.4 33.4 0 0 1-32-33.8 11 11 0 1 1 22 0c0 6.3 4.8 11.6 10.7 11.8a11.3 11.3 0 0 0 11.7-11.3v-39.2a11.5 11.5 0 0 0-11.3-11.4 33.5 33.5 0 0 1-33.2-33.5V48.1a33.4 33.4 0 0 1 32-33.8A33.3 33.3 0 0 1 469 47.6a11 11 0 0 1-22 0 11.2 11.2 0 0 0-11.6-11.3c-6 .2-10.9 5.5-10.9 11.8v38.7a11.5 11.5 0 0 0 11.4 11.4 33.5 33.5 0 0 1 33.1 33.5V173a33.3 33.3 0 0 1-33.2 31.2zm-268.9 14.3h-1a33.7 33.7 0 0 1-32.3-33.7v-114A11.3 11.3 0 0 0 122 59.5a11.6 11.6 0 0 0-11 11.8v76.4A33.3 33.3 0 0 1 76.8 181a33.7 33.7 0 0 1-32.3-33.7v-38.5A11.3 11.3 0 0 0 33 97.5c-6 .2-11 5.5-11 11.8a11 11 0 0 1-22 0 33.7 33.7 0 0 1 32.3-33.8 33.3 33.3 0 0 1 34.2 33.3v38.5a11.6 11.6 0 0 0 11 11.7A11.3 11.3 0 0 0 89 147.7V71.3a33.7 33.7 0 0 1 32.3-33.8 33.3 33.3 0 0 1 34.2 33.3v114a11.6 11.6 0 0 0 11 11.7 11.3 11.3 0 0 0 11.5-11.3V33.7A33.8 33.8 0 0 1 210.4 0a33.3 33.3 0 0 1 34.2 33.3v137.1a11.6 11.6 0 0 0 11 11.7A11.3 11.3 0 0 0 267 171V71.2a33.7 33.7 0 0 1 32.3-33.7 33.2 33.2 0 0 1 34.2 33.3v76.5a11.6 11.6 0 0 0 11 11.7 11.3 11.3 0 0 0 11.5-11.3v-76a11 11 0 0 1 22 0v76a33.3 33.3 0 0 1-34 33.3 33.7 33.7 0 0 1-32.3-33.7V70.8A11.2 11.2 0 0 0 300 59.5c-6 .2-11 5.5-11 11.8v99.6a33.3 33.3 0 0 1-34.1 33.3 33.7 33.7 0 0 1-32.4-33.8V33.3A11.3 11.3 0 0 0 211 22a11.6 11.6 0 0 0-11 11.7v151.5a33.3 33.3 0 0 1-33.2 33.3z"/></svg>