<svg xmlns="http://www.w3.org/2000/svg" viewBox="0 0 595.4 522.5"><linearGradient id="a" gradientUnits="userSpaceOnUse" x1="297.7" y1="514.776" x2="297.7" y2="9.276" gradientTransform="matrix(1 0 0 -1 0 523.276)"><stop offset="0" stop-color="orange"/><stop offset="1" stop-color="#ff4500"/></linearGradient><path d="M536.4 390v-69.8c0-32.6 26.4-59 59-59-32.6 0-59-26.4-59-59v-69.8C534.5 64 477.4 10.1 409 12.1 343.3 14 290.5 66.8 288.7 132.4l-.1 3c0 21.1-17.1 38.2-38.2 38.2s-38.2-17.1-38.2-38.2c0 0 0 0 0 0l-.1-3c0-42.3-34.3-76.6-76.6-76.6S59 90.1 59 132.4v69.8c0 32.6-26.4 59-59 59 32.6 0 59 26.4 59 59v69.9c0 42.2 34.3 76.5 76.5 76.5s76.5-34.3 76.5-76.5l.2-3c0-21.1 17.1-38.2 38.2-38.2s38.2 17.1 38.2 38.2l.1 3c1.9 68.4 59 122.3 127.4 120.3 65.7-1.9 118.5-54.7 120.3-120.3v-.1z" fill="url(#a)" stroke="#fff" stroke-width="17" stroke-miterlimit="10"/></svg>