<svg version="1" xmlns="http://www.w3.org/2000/svg" width="1588" height="1588" viewBox="0 0 1191 1191"><path d="M803.5 80.7c-10 .8-33.1 4.8-43.5 7.4-23.8 6.1-43.9 14.3-67.5 27.4-5.8 3.2-26.8 17.4-30.6 20.7-1.5 1.3-5.6 4.7-9.3 7.7-9.8 8.1-28.1 27.4-36.9 38.8-35 45.8-53.3 97.1-55.2 154.7-.3 6.5-.7 13.7-1 15.9-2.7 18-15.9 35.5-32.7 43.5-9.6 4.6-17.1 6.4-26.9 6.3-22-.2-42.9-13.6-52.3-33.6-4.6-9.5-5.7-15-6.2-28.5-.7-21.3-1.6-28.6-5.4-44.5-7.6-30.9-23.1-57.7-46.6-80.7-14.1-13.7-26.9-22.7-44.4-31.1-10.2-4.8-22.5-9.6-22.5-8.7 0 .2-.9-.1-2-.7-3.5-1.9-24.6-6.2-34-6.9-19.6-1.6-35.4-.5-54 3.8-61 14-110.5 62.2-126 122.5-2.4 9.8-3.4 15.4-5 28.8-.2 2.2-.5 40.4-.5 85l-.1 81-3 11.4c-4.9 19.3-12.4 33-25.1 46.2-18.7 19.3-45 31.1-70.1 31.2l-2.7.1.2 17 .3 17 3.5.2c16.2 1 26.9 3.7 39.9 10.1 5.2 2.5 9.9 4.9 10.5 5.4 18.8 14.7 27.9 24.6 34.8 38.2 3.9 7.5 9.2 22.5 10.4 29.2.7 4.1 1.1 34 1.7 125.5.2 28.9.6 53.6 1 55 .3 1.4.8 4.1 1.1 6 .3 1.9 1.4 7.1 2.5 11.5 14.8 61.1 62.5 109.1 123.6 124.5 6.1 1.6 13.9 3.1 17.5 3.5 3.6.4 7.9.9 9.5 1.1 4.4.5 26.5.5 30.5-.1 12.7-1.6 19.4-2.6 20.1-3.1.3-.2 2.1-.6 4-.9 6-1.1 23.1-7.2 32.4-11.6 50.2-23.8 86.2-71.1 95.1-124.9 1.5-9.2 1.6-11.2 2.9-34.5.7-14.4 3.2-22.5 9.8-32.7 11.1-17.1 29.5-26.9 50.7-26.9 20.4 0 41.9 13.3 51.1 31.6 5.5 10.9 6.7 16.6 7.4 35 .5 12.2 1 19.4 2 25.6.3 1.4.7 4.1.9 6 1.1 8.3 1.9 12.1 4.7 23.7 23.6 97.2 101.9 173.5 200.4 195.1 20.4 4.5 36.2 5.9 60 5.6 23.7-.3 30.8-1.1 53-5.7 49.6-10.2 99.7-38.2 134.6-75.3 9.6-10.2 12.2-13.2 20.4-24 17.3-22.8 30.4-47.6 39.8-75.6 3.6-10.6 8-27.7 9.2-35.4.3-2.2.7-4.7 1-5.5.2-.8.7-3.8 1-6.5.4-2.8.9-6.6 1.2-8.5.2-1.9.6-40.6.8-86 .4-97.1.5-97.8 10.2-117.6 5.9-12.2 10.9-19.1 20.3-28.5 15.4-15.4 32-23.9 55.6-28.5 1.2-.2 5.2-.5 8.8-.6l6.6-.3v-34.2h-4.5c-9.5-.1-21.7-2.7-32.5-7-33.1-12.9-57.8-43.7-63-78.7-.8-5.3-1.3-33.9-1.4-90.5-.2-45.4-.6-83.5-.8-84.6-.3-1.1-.9-4.5-1.2-7.5-.8-6.8-1.2-9.1-3.7-21-3.3-15.7-6.7-26.8-12-40.3-27.9-69.9-80.4-122.5-150.4-150.5-17.9-7.2-44.7-14.1-61.5-15.8-3.6-.3-6.9-.9-7.4-1.2-1-.6-42.7-1-49.1-.5z"/></svg>